<?xml version="1.0" encoding="utf-8"?>
<!-- Generator: Adobe Illustrator 16.0.0, SVG Export Plug-In . SVG Version: 6.00 Build 0)  -->
<!DOCTYPE svg PUBLIC "-//W3C//DTD SVG 1.1//EN" "http://www.w3.org/Graphics/SVG/1.1/DTD/svg11.dtd">
<svg version="1.1" id="Layer_1" xmlns="http://www.w3.org/2000/svg" xmlns:xlink="http://www.w3.org/1999/xlink" x="0px" y="0px"
	 width="1920px" height="1080px" viewBox="0 0 1920 1080" enable-background="new 0 0 1920 1080" xml:space="preserve">
<path fill="none" d="M1920,819.64V1080H0V790.96c65.78-0.49,153.89,17.16,271.62,61.05c569.27,212.221,712.91-513.6,1104.87-192.91
	C1581.77,827.05,1769.71,811.22,1920,819.64z"/>
<g>
	<radialGradient id="SVGID_1_" cx="959.9995" cy="729.0283" r="698.191" gradientUnits="userSpaceOnUse">
		<stop  offset="0" style="stop-color:#5E61AB"/>
		<stop  offset="1" style="stop-color:#2D318F"/>
	</radialGradient>
	<path fill="url(#SVGID_1_)" d="M1919.999,760.828v199.16H0v-307.32c173.31-141.66,350.77-226.37,643.07-72.779
		C1229.019,887.778,1621.749,569.769,1919.999,760.828z"/>
</g>
<g>
	<linearGradient id="SVGID_2_" gradientUnits="userSpaceOnUse" x1="2149.5752" y1="828" x2="961.6753" y2="827.9999">
		<stop  offset="0" style="stop-color:#5E61AB"/>
		<stop  offset="1" style="stop-color:#2D318F"/>
	</linearGradient>
	<path fill="url(#SVGID_2_)" d="M1920,819.64V1080H0V790.96c65.78-0.49,153.89,17.16,271.62,61.05
		c569.27,212.221,712.91-513.6,1104.87-192.91C1581.77,827.05,1769.71,811.22,1920,819.64z"/>
</g>
</svg>
